# xmcd
#
# Track frame offsets: 
#        150
#        11487
#        24725
#        32525
#        50925
#        70095
#        84005
#        95657
#        105505
#        117672
#        126890
#
# Disc length: 1828 seconds
#
# Revision: 1
# Processed by: cddbd v1.5.2PL0 Copyright (c) Steve Scherf et al.
# Submitted via: ExactAudioCopyFreeDBPlugin 1.0
#
DISCID=8c07220b
DTITLE=Johnny Winter and Uncle John - Johnny Winter and Uncle John
DYEAR=1981
DGENRE=Blues
TTITLE0=got it made in the shade
TTITLE1=they call me lazy
TTITLE2=family rules
TTITLE3=ohh pooh do
TTITLE4=drivin' wheel
TTITLE5=allons danser
TTITLE6=struggle in houston
TTITLE7=you're humbuggin me
TTITLE8=roll roll roll
TTITLE9=teen weeny bit
TTITLE10=rainin breakdown
EXTD=YEAR: 1981
EXTT0=
EXTT1=
EXTT2=
EXTT3=
EXTT4=
EXTT5=
EXTT6=
EXTT7=
EXTT8=
EXTT9=
EXTT10=
PLAYORDER=
